<svg xmlns="http://www.w3.org/2000/svg" viewBox="0 0 512 512">
  <path fill="currentColor" d="M256 128c-79.5 0-146 46.9-166.7 110.8-3.6 11.2-5.6 22.9-5.6 34.8 0 8.8 7.2 16 16 16h20.4c8.4 0 15.4-6.5 16-14.9 5.4-77 63.4-124.7 119.9-124.7s114.5 47.7 119.9 124.7c.6 8.4 7.6 14.9 16 14.9H412c8.8 0 16-7.2 16-16 0-11.9-2-23.6-5.6-34.8C401.7 174.9 335.5 128 256 128zm-96 208c-13.3 0-24 10.7-24 24v24c0 13.3 10.7 24 24 24s24-10.7 24-24v-24c0-13.3-10.7-24-24-24zm192 0c-13.3 0-24 10.7-24 24v24c0 13.3 10.7 24 24 24s24-10.7 24-24v-24c0-13.3-10.7-24-24-24zM74 250c-13.3 0-24 10.7-24 24v12c0 13.3 10.7 24 24 24s24-10.7 24-24v-12c0-13.3-10.7-24-24-24zm364 0c-13.3 0-24 10.7-24 24v12c0 13.3 10.7 24 24 24s24-10.7 24-24v-12c0-13.3-10.7-24-24-24zM256 176c-13.3 0-24 10.7-24 24s10.7 24 24 24 24-10.7 24-24-10.7-24-24-24z"/>
</svg>
